Coordinates
version=1
nRows=27
nColumns=12
inDegrees=yes

Units are S.I. units (second, meters, Newtons, ...)
Angles are in degrees

endheader
time	SC_y	SC_z	SC_x	AC_y	AC_z	AC_x	GH_y	GH_z	GH_yy	EL_x	PS_y
       0.0               -28.0          8.267          24.93          60.46         -2.132         -7.944         -59.02          18.29          34.54          112.5          44.02
   0.02409              -28.01          8.269          24.94          60.46         -2.133         -7.945          -59.0          18.29          34.54          112.5          44.03
   0.04818              -28.01          8.271          24.95          60.45         -2.134         -7.947         -58.98           18.3          34.54          112.5          44.03
   0.07227              -28.01          8.274          24.95          60.45         -2.135         -7.949         -58.96          18.31          34.53          112.5          44.04
   0.09635              -28.02          8.276          24.96          60.44         -2.135         -7.951         -58.94          18.31          34.53          112.5          44.04
    0.1204              -28.02          8.279          24.97          60.44         -2.137         -7.953         -58.92          18.32          34.52          112.5          44.05
    0.1445              -28.03          8.282          24.98          60.43         -2.138         -7.955         -58.89          18.33          34.52          112.5          44.05
    0.1686              -28.03          8.285          24.99          60.43         -2.139         -7.958         -58.87          18.34          34.51          112.4          44.06
    0.1927              -28.03          8.289           25.0          60.42          -2.14          -7.96         -58.84          18.35          34.51          112.4          44.06
    0.2168              -28.04          8.292          25.01          60.42         -2.141         -7.963         -58.81          18.36           34.5          112.4          44.07
    0.2409              -28.05          8.296          25.03          60.41         -2.143         -7.966         -58.78          18.38          34.49          112.4          44.08
     0.265              -28.05            8.3          25.04           60.4         -2.144         -7.969         -58.74          18.39          34.49          112.4          44.09
    0.2891              -28.06          8.305          25.06           60.4         -2.146         -7.973          -58.7           18.4          34.48          112.3           44.1
    0.3132              -28.07           8.31          25.07          60.39         -2.148         -7.976         -58.66          18.42          34.47          112.3           44.1
    0.3372              -28.07          8.315          25.09          60.38          -2.15         -7.981         -58.62          18.43          34.46          112.3          44.12
    0.3613              -28.08           8.32          25.11          60.37         -2.152         -7.985         -58.57          18.45          34.45          112.3          44.13
    0.3854              -28.09          8.327          25.13          60.36         -2.154          -7.99         -58.52          18.47          34.44          112.2          44.14
    0.4095               -28.1          8.333          25.15          60.35         -2.157         -7.995         -58.46          18.49          34.43          112.2          44.15
    0.4336              -28.11          8.341          25.17          60.33          -2.16         -8.001          -58.4          18.51          34.42          112.2          44.17
    0.4577              -28.12          8.349           25.2          60.32         -2.163         -8.007         -58.34          18.54          34.41          112.1          44.18
    0.4818              -28.14          8.358          25.23           60.3         -2.166         -8.014         -58.26          18.57          34.39          112.1           44.2
    0.5059              -28.15          8.367          25.26          60.29          -2.17         -8.021         -58.18           18.6          34.37          112.0          44.22
    0.5299              -28.17          8.378           25.3          60.27         -2.174         -8.029         -58.09          18.63          34.36          112.0          44.24
     0.554              -28.18           8.39          25.34          60.25         -2.178         -8.039         -57.99          18.67          34.34          111.9          44.26
    0.5781               -28.2          8.403          25.38          60.22         -2.183         -8.049         -57.88          18.71          34.31          111.9          44.29
    0.6022              -28.22          8.418          25.43           60.2         -2.189          -8.06         -57.76          18.75          34.29          111.8          44.31
    0.6263              -28.25          8.435          25.49          60.17         -2.195         -8.073         -57.62          18.81          34.26          111.7          44.35
